<?xml version="1.0" encoding="utf-8"?>
<!DOCTYPE svg PUBLIC "-//W3C//DTD SVG 1.1//EN" "http://www.w3.org/Graphics/SVG/1.1/DTD/svg11.dtd">
<svg version="1.1" id="Layer_1" xmlns="http://www.w3.org/2000/svg" xmlns:xlink="http://www.w3.org/1999/xlink" x="0px" y="0px"
	 viewBox="410.953 11.019 1738.094 1577.9836" enable-background="new 410.953 11.019 1738.094 1577.9836" xml:space="preserve">
<g>
	
		<radialGradient id="path16_2_" cx="-713.4046" cy="1066.8068" r="529.5962" gradientTransform="matrix(1.4587 0 0 -1.4587 2320.5581 2352.5447)" gradientUnits="userSpaceOnUse">
		<stop  offset="0" style="stop-color:#E5E2DF"/>
		<stop  offset="0" style="stop-color:#F1EFEE"/>
		<stop  offset="0" style="stop-color:#FFFFFF"/>
		<stop  offset="0.1259" style="stop-color:#F0F0F1"/>
		<stop  offset="0.3664" style="stop-color:#C9CACB"/>
		<stop  offset="0.5225" style="stop-color:#ADAEB0"/>
		<stop  offset="0.6029" style="stop-color:#A3A5A7"/>
		<stop  offset="0.7382" style="stop-color:#898D90"/>
		<stop  offset="0.9108" style="stop-color:#5F6769"/>
		<stop  offset="1" style="stop-color:#465053"/>
	</radialGradient>
	<path id="path16_1_" fill="url(#path16_2_)" d="M1279.428,1527.4886c-212.8635-170.2109-449.1359-369.9419-608.9468-570.8438
		C502.4389,745.399,440.0076,559.7831,479.6155,389.1906c22.8831-98.5597,69.5201-176.9878,138.6118-233.1069
		c63.4935-51.5713,144.6948-81.9715,234.8239-87.9115c12.2223-0.8068,24.4225-1.2148,36.2589-1.2148
		c164.3604,0,291.6682,79.2456,368.1562,229.1708l21.4817,42.111l21.4692-42.119
		c75.8286-148.7873,200.9515-230.7275,352.3113-230.7275c15.9543,0,32.4233,0.9057,48.9487,2.6916
		c195.4845,21.1269,332.792,131.3345,376.7156,302.3663c42.7593,166.4949-17.0151,359.1197-177.6592,572.52
		C1764.6438,1123.7548,1555.6598,1320.3534,1279.428,1527.4886z"/>
	<g id="g18_1_">
		
			<linearGradient id="path29_2_" gradientUnits="userSpaceOnUse" x1="-357.9583" y1="782.6147" x2="1375.678" y2="782.6147" gradientTransform="matrix(0.9645 0 0 0.9645 789.2242 44.8154)">
			<stop  offset="0" style="stop-color:#6F6859"/>
			<stop  offset="0.0562" style="stop-color:#6F6859"/>
			<stop  offset="0.0861" style="stop-color:#716A5B"/>
			<stop  offset="0.1022" style="stop-color:#787163"/>
			<stop  offset="0.1149" style="stop-color:#847E71"/>
			<stop  offset="0.1259" style="stop-color:#959084"/>
			<stop  offset="0.1356" style="stop-color:#ABA79D"/>
			<stop  offset="0.1404" style="stop-color:#B9B5AC"/>
			<stop  offset="0.2301" style="stop-color:#B9B5AC"/>
			<stop  offset="0.2416" style="stop-color:#B9B5AC"/>
			<stop  offset="0.2606" style="stop-color:#B6B2A9"/>
			<stop  offset="0.2743" style="stop-color:#ADA9A0"/>
			<stop  offset="0.2863" style="stop-color:#9D9990"/>
			<stop  offset="0.2903" style="stop-color:#969289"/>
			<stop  offset="0.3142" style="stop-color:#969289"/>
			<stop  offset="0.3184" style="stop-color:#969289"/>
			<stop  offset="0.3553" style="stop-color:#98948B"/>
			<stop  offset="0.3714" style="stop-color:#9E9B92"/>
			<stop  offset="0.3835" style="stop-color:#A9A69F"/>
			<stop  offset="0.3936" style="stop-color:#B9B7B1"/>
			<stop  offset="0.4024" style="stop-color:#CECDC8"/>
			<stop  offset="0.4102" style="stop-color:#E7E7E4"/>
			<stop  offset="0.4157" style="stop-color:#FDFEFD"/>
			<stop  offset="0.4438" style="stop-color:#FCFDFC"/>
			<stop  offset="0.4804" style="stop-color:#FAFAF9"/>
			<stop  offset="0.5029" style="stop-color:#F2F2F1"/>
			<stop  offset="0.5215" style="stop-color:#E4E4E3"/>
			<stop  offset="0.5375" style="stop-color:#D2D0D0"/>
			<stop  offset="0.543" style="stop-color:#D2D0D0"/>
			<stop  offset="0.5431" style="stop-color:#D2D0D0"/>
			<stop  offset="0.5546" style="stop-color:#D6D4D4"/>
			<stop  offset="0.5657" style="stop-color:#E1DFDF"/>
			<stop  offset="0.5766" style="stop-color:#F3F3F3"/>
			<stop  offset="0.5818" style="stop-color:#FFFFFF"/>
			<stop  offset="0.7212" style="stop-color:#FFFFFF"/>
			<stop  offset="0.7225" style="stop-color:#FBFBFB"/>
			<stop  offset="0.733" style="stop-color:#DEDEDB"/>
			<stop  offset="0.7447" style="stop-color:#C6C6C0"/>
			<stop  offset="0.7582" style="stop-color:#B1B1AA"/>
			<stop  offset="0.7738" style="stop-color:#A2A299"/>
			<stop  offset="0.7932" style="stop-color:#97978E"/>
			<stop  offset="0.8204" style="stop-color:#919187"/>
			<stop  offset="0.8959" style="stop-color:#8F8F85"/>
			<stop  offset="0.9657" style="stop-color:#FFFFFF"/>
		</linearGradient>
		
			<linearGradient id="path29_3_" gradientUnits="userSpaceOnUse" x1="905.9885" y1="-5.5733" x2="905.9885" y2="1560.5518" gradientTransform="matrix(0.9726 0 0 -0.9726 398.8068 1556.2108)">
			<stop  offset="0.0692" style="stop-color:#66605C"/>
			<stop  offset="0.0887" style="stop-color:#29241E"/>
			<stop  offset="0.0895" style="stop-color:#29241E"/>
			<stop  offset="0.1053" style="stop-color:#29241E"/>
			<stop  offset="0.1065" style="stop-color:#39342E"/>
			<stop  offset="0.1107" style="stop-color:#68635E"/>
			<stop  offset="0.115" style="stop-color:#908C87"/>
			<stop  offset="0.1193" style="stop-color:#B1ADA8"/>
			<stop  offset="0.1238" style="stop-color:#CAC7C2"/>
			<stop  offset="0.1283" style="stop-color:#DDD9D4"/>
			<stop  offset="0.1331" style="stop-color:#E7E4DF"/>
			<stop  offset="0.1383" style="stop-color:#EBE8E3"/>
			<stop  offset="0.1609" style="stop-color:#EBE8E3"/>
			<stop  offset="0.2256" style="stop-color:#A49B90"/>
			<stop  offset="0.2366" style="stop-color:#A2998E"/>
			<stop  offset="0.2406" style="stop-color:#9C9388"/>
			<stop  offset="0.2511" style="stop-color:#999084"/>
			<stop  offset="0.252" style="stop-color:#999084"/>
			<stop  offset="0.2571" style="stop-color:#999084"/>
			<stop  offset="0.2589" style="stop-color:#968E82"/>
			<stop  offset="0.2703" style="stop-color:#8B8379"/>
			<stop  offset="0.2863" style="stop-color:#847D74"/>
			<stop  offset="0.3308" style="stop-color:#827B73"/>
			<stop  offset="0.3902" style="stop-color:#827B73"/>
			<stop  offset="0.4" style="stop-color:#827B73"/>
			<stop  offset="0.4208" style="stop-color:#817C75"/>
			<stop  offset="0.4211" style="stop-color:#817C75"/>
			<stop  offset="0.5188" style="stop-color:#918D87"/>
			<stop  offset="0.524" style="stop-color:#8E8A84"/>
			<stop  offset="0.5684" style="stop-color:#7C7671"/>
			<stop  offset="0.7098" style="stop-color:#7D7772"/>
			<stop  offset="0.7429" style="stop-color:#2B2924"/>
			<stop  offset="0.803" style="stop-color:#2B2924"/>
			<stop  offset="0.8391" style="stop-color:#FDFCF9"/>
			<stop  offset="0.8541" style="stop-color:#FDFCF9"/>
			<stop  offset="0.8902" style="stop-color:#B7AEA5"/>
			<stop  offset="0.9083" style="stop-color:#817974"/>
			<stop  offset="1" style="stop-color:#817974"/>
		</linearGradient>
		<path id="path29_1_" fill="url(#path29_2_)" stroke="url(#path29_3_)" stroke-width="6" stroke-miterlimit="10" d="
			M1652.7295,89.4977c15.0912,0,30.6884,0.8584,46.358,2.5518c91.0194,9.8373,171.3575,40.8202,232.3284,89.5978
			c61.4679,49.1755,103.063,114.7152,123.6295,194.799c20.8201,81.0688,15.9248,169.7303-14.5492,263.5225
			c-29.3053,90.1953-82.8079,187.2625-159.0214,288.5051c-132.2706,175.7096-334.5792,366.8723-601.5885,568.5023
			c-207.9429-166.7811-435.8317-360.8499-590.5412-555.3364C526.1824,736.526,465.2599,557.6015,503.0962,394.6424
			c21.6436-93.2178,65.4923-167.1852,130.3289-219.8475c59.5975-48.4073,136.0914-76.9597,221.2114-82.5706
			c11.6912-0.7705,23.3566-1.1613,34.6815-1.1617c80.3522,0,151.1182,19.585,210.3322,58.2115
			c55.5273,36.222,101.3992,89.3162,136.3425,157.8084l42.9663,84.2201l42.9325-84.2368
			c34.1445-66.9933,78.6213-119.8351,132.1967-157.0582C1511.8789,109.8563,1578.7109,89.4977,1652.7295,89.4977 M1652.7295,41.2865
			c-176.4584,0-302.0104,103.0466-373.7917,243.8868C1203.948,138.1845,1075.9434,42.8471,889.3054,42.8514
			c-12.3519,0-24.9731,0.4183-37.8399,1.2661C665.837,56.3532,506.3746,167.3554,456.1342,383.7384
			c-90.3739,389.2379,337.3894,787.1302,822.8038,1174.2096c516.2296-384.4525,918.9817-818.9929,822.8037-1193.494
			c-46.9197-182.6989-194.476-298.3966-397.4741-320.3365C1686.6221,42.2105,1669.4615,41.2865,1652.7295,41.2865L1652.7295,41.2865
			z"/>
	</g>
	<defs>
		
			<filter id="Adobe_OpacityMaskFilter" filterUnits="userSpaceOnUse" x="523.5391" y="91.2556" width="1517.0444" height="325.6929">
			<feColorMatrix  type="matrix" values="1 0 0 0 0  0 1 0 0 0  0 0 1 0 0  0 0 0 1 0"/>
		</filter>
	</defs>
	<mask maskUnits="userSpaceOnUse" x="523.5391" y="91.2556" width="1517.0444" height="325.6929" id="SVGID_4_">
		<g id="g37_2_" filter="url(#Adobe_OpacityMaskFilter)">
			<g id="g39_2_">
				
					<linearGradient id="path52_1_" gradientUnits="userSpaceOnUse" x1="98.8768" y1="48.1515" x2="98.8768" y2="385.8455" gradientTransform="matrix(0.9645 0 0 0.9645 789.2242 44.8154)">
					<stop  offset="0" style="stop-color:#FFFFFF"/>
					<stop  offset="0.129" style="stop-color:#E5E5E5"/>
					<stop  offset="0.4058" style="stop-color:#A1A1A1"/>
					<stop  offset="0.8052" style="stop-color:#373737"/>
					<stop  offset="1" style="stop-color:#000000"/>
				</linearGradient>
				<path id="path52_2_" fill="url(#path52_1_)" d="M523.5391,416.9485c0-179.8751,161.6466-325.6929,361.048-325.6929
					s361.0479,145.8177,361.0479,325.6929C1245.6351,199.8199,523.5391,199.8199,523.5391,416.9485z"/>
				
					<linearGradient id="path65_1_" gradientUnits="userSpaceOnUse" x1="923.1174" y1="48.1515" x2="923.1174" y2="385.8455" gradientTransform="matrix(0.9645 0 0 0.9645 789.2242 44.8154)">
					<stop  offset="0" style="stop-color:#FFFFFF"/>
					<stop  offset="0.129" style="stop-color:#E5E5E5"/>
					<stop  offset="0.4058" style="stop-color:#A1A1A1"/>
					<stop  offset="0.8052" style="stop-color:#373737"/>
					<stop  offset="1" style="stop-color:#000000"/>
				</linearGradient>
				<path id="path65_2_" fill="url(#path65_1_)" d="M1318.4875,416.9485c0-179.8751,161.6467-325.6929,361.048-325.6929
					c199.401,0,361.048,145.8177,361.048,325.6929C2040.5835,199.8199,1318.4875,199.8199,1318.4875,416.9485z"/>
			</g>
		</g>
	</mask>
	<g id="g67_1_" mask="url(#SVGID_4_)">
		<path id="path84_1_" fill="#FFFFFF" d="M523.5391,416.9485c0-179.8751,161.6466-325.6929,361.048-325.6929
			s361.0479,145.8177,361.0479,325.6929C1245.6351,199.8199,523.5391,199.8199,523.5391,416.9485z"/>
		<path id="path101_1_" fill="#FFFFFF" d="M1318.4875,416.9485c0-179.8751,161.6467-325.6929,361.048-325.6929
			c199.401,0,361.048,145.8177,361.048,325.6929C2040.5835,199.8199,1318.4875,199.8199,1318.4875,416.9485z"/>
	</g>
</g>
</svg>
